/* XPM */
static char *icon1_xpm[] = {
/* width height num_colors chars_per_pixel */
"15 14 108 2",
/* colors */
"   c #fdfffe",
" . c #ecb986",
" X c #e9831b",
" o c #ee9527",
" O c #ed9b32",
" + c #f2a43c",
" @ c #f3ab44",
" # c #f3af51",
" $ c #f4b75c",
" % c #f6be64",
" & c #f5c473",
" * c #f6cc7f",
" = c #f7d187",
" - c #fbde9d",
" ; c #fbfbee",
" : c #e6c1b1",
" > c #e66a00",
" , c #ec850f",
" < c #ea8a1c",
" 1 c #f29424",
" 2 c #f5a133",
" 3 c #f5af4c",
" 4 c #f7b753",
" 5 c #f8be5d",
" 6 c #fbc66c",
" 7 c #f9cc74",
" 8 c #fbdda1",
" 9 c #fbe2a6",
" 0 c #fbecc6",
" q c #dea78d",
" w c #e86a00",
" e c #c87132",
" r c #c38e72",
" t c #ca8852",
" y c #d68233",
" u c #e88d23",
" i c #f39d2d",
" p c #f4b34c",
" a c #f9be55",
" s c #f9c563",
" d c #fceeca",
" f c #deaa91",
" g c #e46600",
" h c #d38f5b",
" j c #edeced",
" k c #e0c2a0",
" l c #e19e4e",
" z c #e88217",
" x c #f1a345",
" c c #f4c37c",
" v c #faf1de",
" b c #f7f6f3",
" n c #e6bc83",
" m c #f3a93a",
" M c #f8b653",
" N c #d06e1d",
" B c #c6712f",
" V c #d77714",
" C c #f5cc8c",
" Z c #edcc93",
" A c #fac15b",
" S c #cd8a5a",
" D c #f1f9ff",
" F c #e8e0dc",
" G c #ddb385",
" H c #f3b563",
" J c #fbfbf3",
" K c #f6bc53",
" L c #e0862d",
" P c #f4cc9b",
" I c #fcf6e3",
" U c #f3e5cf",
" Y c #eda542",
" T c #f5c86c",
" R c #f07f06",
" E c #e87600",
" W c #f5d6ac",
" Q c #f7ecd5",
" ! c #f7e6c6",
" ~ c #f9e1ae",
" ^ c #d96f0c",
" / c #bf7a49",
" ( c #f9ead2",
" ) c #c8793d",
" _ c #ecf3fb",
" ` c #f0af5b",
" ' c #f3b76a",
" ] c #f5ba5a",
" [ c #dfa98f",
" { c #e59138",
" } c #f7f4ea",
" | c #f09d39",
".  c #faf7f0",
".. c #f8d07b",
".X c #f18006",
".o c #f08d23",
".O c #f1911f",
".+ c #f7c76f",
".@ c #fbd584",
".# c #eddfdc",
".$ c #cb6935",
".% c #df700d",
".& c #e47b11",
".* c #e68e28",
".= c #e7962e",
".- c #eda33c",
".; c #edae48",
".: c #f7c663",
/* pixels */
"   . X o O + @ # $ % & * = - ;",
" : > , < 1 2 @ 3 4 5 6 7 8 9 0",
" q w e r t y u i + @ p a s 9 d",
" f g h     j k l 2 p 4 5 s - d",
" f > z x c v   b n m M 5 s - d",
" f > N B V u C     Z p A s - d",
" f g S D F G u H J   C K s - d",
" f g L P I   U Y c   J T s - d",
" f > R E < W   Q @ !   ~ A - d",
" f w ^ / l o (   C c   v s - d",
" f w ) _   ` '   ( ]   J 7 - d",
" [ g { } Q | Y.  v $ v J.. - d",
" f g.X.o 1.O i @ p p %.+ 6.@ d",
".#.$.%.& X.*.= O.-.; p ].: 8  "
};
